<svg xmlns="http://www.w3.org/2000/svg" viewBox="0 0 100 100" id="1549007206" class="svg u_1549007206" data-icon-name="li_chart"> <path d="M76.7,18.1H23.3c-2.8,0-5.1,2.3-5.1,5.1v53.4c0,2.8,2.3,5.1,5.1,5.1h53.4c2.8,0,5.1-2.3,5.1-5.1V23.3
	C81.9,20.4,79.6,18.1,76.7,18.1z M79.8,76.7c0,1.7-1.4,3.1-3.1,3.1H23.3c-1.7,0-3.1-1.4-3.1-3.1v-16l19.5-19.5L50,51.5l19.5-19.5V50
	h2.1V28.4H50v2.1h18.1L50,48.5L39.7,38.3L20.2,57.8V23.3c0-1.7,1.4-3.1,3.1-3.1h53.4c1.7,0,3.1,1.4,3.1,3.1V76.7z" id="1124736136"></path>
</svg>
