<svg xmlns="http://www.w3.org/2000/svg" viewBox="0 0 100 100" id="1441712000" class="svg u_1441712000" data-icon-name="li-price_tag"> <g id="1343119558"> <rect fill="rgb(89, 201, 231)" x="48.5" y="52.4" transform="matrix(0.7071 -0.7071 0.7071 0.7071 -21.88 53.9771)" width="11.5" height="2.1" id="1884023277"></rect>
 <rect fill="rgb(89, 201, 231)" x="54.5" y="58.4" transform="matrix(0.707 -0.7072 0.7072 0.707 -24.3891 60.0447)" width="11.5" height="2.1" id="1230843168"></rect>
 <rect fill="rgb(89, 201, 231)" x="60.6" y="64.5" transform="matrix(0.707 -0.7072 0.7072 0.707 -26.8973 66.0988)" width="11.5" height="2.1" id="1203756595"></rect>
 <path fill="rgb(89, 201, 231)" d="M47.6,28.2h-6.3c-0.5-5.8-5.4-10.3-11.3-10.3c-6.2,0-11.3,5.1-11.3,11.3c0,5.9,4.5,10.7,10.3,11.3v6.3l35.3,35.3l18.6-18.6
		L47.6,28.2z M29,32.7v5.7c-4.6-0.5-8.2-4.4-8.2-9.1c0-5.1,4.1-9.2,9.2-9.2c4.7,0,8.6,3.6,9.1,8.2h-5.7C31,28.2,29,30.2,29,32.7z
		 M31.1,45.9V32.7c0-1.3,1.1-2.4,2.4-2.4h5.8v7.5h-0.7v3.4H42v-3.4h-0.7v-7.5h5.4L80,63.5L64.3,79.2L31.1,45.9z" id="1674635139"></path>
</g>
</svg>
